<svg width="113" height="178" viewBox="0 0 113 178" xmlns="http://www.w3.org/2000/svg" xmlns:xlink="http://www.w3.org/1999/xlink"><title>Logo</title><defs><linearGradient x1="89.692%" y1="14.609%" x2="21.361%" y2="100%" id="a"><stop stop-color="#F9344D" offset="0%"/><stop stop-color="#2F2FFF" offset="54.102%"/><stop stop-color="#52CEF8" offset="100%"/></linearGradient><filter x="-50%" y="-50%" width="200%" height="200%" filterUnits="objectBoundingBox" id="b"><feOffset dx="-2" dy="3" in="SourceAlpha" result="shadowOffsetOuter1"/><feGaussianBlur stdDeviation="10" in="shadowOffsetOuter1" result="shadowBlurOuter1"/><feColorMatrix values="0 0 0 0 0 0 0 0 0 0 0 0 0 0 0 0 0 0 0.552734375 0" in="shadowBlurOuter1" result="shadowMatrixOuter1"/><feMerge><feMergeNode in="shadowMatrixOuter1"/><feMergeNode in="SourceGraphic"/></feMerge></filter><linearGradient x1="50%" y1="0%" x2="50%" y2="100%" id="c"><stop stop-color="#FFF" stop-opacity=".1" offset="0%"/><stop stop-color="#FFF" stop-opacity="0" offset="100%"/></linearGradient><path d="M30.503 29.327v8.34c0 .458-.04.992-.11 1.554l5.036 3.91c.45.353.572 1.03.273 1.517l.025-.04c-.296.482-.998.834-1.56.777l-5.462-.562c-.627 1.272-1.597 2.734-2.743 2.734-1.144 0-2.107-1.458-2.73-2.73l-5.415.558c-.562.057-1.264-.295-1.56-.777l.025.04c-.3-.487-.178-1.164.274-1.516l5.012-3.89c-.076-.57-.12-1.11-.12-1.572v-8.334l-18.806.94c-.566.03-1.37-.243-1.804-.61l-.077-.066c-.43-.367-.772-1.12-.763-1.7l.014-.843c.01-.572.422-1.24.944-1.503l20.493-10.32v-7.47c0-1.43.523-3.612 1.246-4.844 0 0 1.143-2.918 3.282-2.918 2.14 0 3.28 2.918 3.28 2.918.688 1.245 1.245 3.406 1.245 4.845v7.404l20.624 10.385c.523.263.935.93.945 1.503l.013.843c.01.58-.332 1.333-.762 1.7l-.077.065c-.433.368-1.238.64-1.804.612l-18.94-.948z" id="d"/></defs><g fill="none" fill-rule="evenodd"><path d="M37.56 24.47L54.645 41.6c1.718 1.723 4.488 1.717 6.2 0L78.43 23.968c.26-.69.73-1.393 1.477-2.097 5.523-5.21 9.917-11.085 11.382-9.616 1.464 1.47-2.93 5.875-2.93 8.813 0 2.937 4.798-2.082 6.302-.685 1.505 1.397-2.488 4.398-.295 5.645 2.193 1.247 13.813-14.986 17.43-12.304 3.616 2.682-7.99 12.248-5.86 14.688 2.13 2.44-5.95 4.64-2.975 5.993 2.942 1.337 3.86 3.57 1.587 5.688l-.668.672c-1.414 1.6-2.385 3.787-4.76 4.772L81.947 62.757c-1.718 1.723-1.712 4.5 0 6.218L104.55 91.64l-.005.004c2.374 2.415 11.365 13.145 5.787 13.145-5.638 0-10.813-5.897-13.068-3.573-2.255 2.325 2.647 6.247 2.007 7.85-.638 1.605-4.51-4.52-6.764-3.39-2.255 1.13 13.542 15.422 11.966 16.738-1.575 1.316-18.73-16.74-18.73-11.086 0 5.652 7.465 5.886 4.082 8.147-3.383 2.26-5.21-5.887-11.975-10.41-1.92-1.28-2.387-2.655-2.073-3.964l-14.93-14.97c-1.72-1.725-4.49-1.718-6.202 0L39.25 105.568c.105 1.165-.458 2.367-2.15 3.498-6.765 4.522-14.658 19.22-18.04 16.958-3.383-2.26 10.147-9.044 10.147-14.697 0-.746-.09-1.272-.25-1.626l-.567-.568c-1.526-.523-4.762 3.184-5.948 2.193-1.575-1.317 2.255-4.523 0-5.654-2.255-1.13-6.125 4.996-6.765 3.392-.64-1.604 4.263-5.526 2.008-7.85-2.255-2.325 1.375-3.455-4.263-3.455-4.954 0-4.004-3.443-2.17-5.813l-.312-.31 22.604-22.665c1.72-1.724 1.713-4.5 0-6.218L16.45 45.617c-1.73-.844-2.678-2.35-3.69-3.7l-1.82-1.825.092-.092c-1.857-2.02-.89-4.098 1.906-5.368 2.975-1.352-7.275-8.188-5.144-10.628 2.13-2.44 3.708 4.15 7.324 1.47 3.616-2.683 4.22 2.03 6.414.782 2.193-1.247-1.8-4.248-.295-5.645 1.505-1.396 6.303 3.623 6.303.686 0-2.938-2.168-3.167-.703-4.636 1.465-1.468 3.633.23 9.156 5.44.844.796 1.338 1.593 1.567 2.37zM112.58.74c1.655-.476 2.814.12 3.552 2.692.738 2.573-5.12 11.212-7.082 7.6-1.962-3.614 1.877-9.82 3.53-10.293zM9.8 117.42c.27 1.08-1.966 5.242-4.626 5.31-2.66.07.286-6.01 1.967-6.428 1.682-.42 2.39.038 2.66 1.118z" fill="url(#a)" transform="translate(-4)"/><g filter="url(#b)" transform="rotate(45 -8.11 77.662)"><path fill="url(#c)" d="M1.633 26.096H52.07v37.61H1.634"/><mask id="e" fill="#fff"><use xlink:href="#d"/></mask><use fill="#FFF" xlink:href="#d"/><path fill="#EBEDF3" mask="url(#e)" d="M19.64 13.488h1.81v16.838h-1.81z"/><path d="M52.072 27.055c-.01-.572-.422-1.24-.945-1.503L29.814 14.82v14.473l19.628.982c.566.028 1.37-.244 1.804-.612l.077-.065c.43-.367.772-1.12.762-1.7l-.013-.843z" fill="#DFE2E4" mask="url(#e)"/><path d="M28.555 44.807l5.612.577c.563.057 1.265-.295 1.56-.777l-.024.04c.3-.487.178-1.164-.274-1.516l-5.32-4.127c-.147 1.306-.44 2.757-.8 3.735 0 0-.27.988-.755 2.07z" fill="#DFE2E4" opacity=".4" mask="url(#e)"/><path d="M35.367 29.57l-5.183-.26V15.007l2.478 1.248 2.705 13.317z" fill="#C5C7CD" mask="url(#e)"/><path d="M30.503.92V47.6s-2.512-.044-4.54-.044c-.024 0-.05 0-.073-.002 1.052-1.522 2.803-4.795 2.803-8.93V6.307c0-3.59-1.665-5.413-2.334-6.276 1.87.31 4.143.89 4.143.89z" fill="#DEE1E3" mask="url(#e)"/></g><text font-family=".AppleSystemUIFont" font-size="16" letter-spacing="1" fill="#4A4A4A" transform="translate(-4)"><tspan x="41.992" y="158.773">X– </tspan> <tspan x="6.316" y="174.773">AVIASALES</tspan></text></g></svg>