<svg width="113" height="127" viewBox="0 0 113 127" xmlns="http://www.w3.org/2000/svg" xmlns:xlink="http://www.w3.org/1999/xlink"><title>Group 4</title><defs><linearGradient x1="89.692%" y1="14.609%" x2="21.361%" y2="100%" id="a"><stop stop-color="#F9344D" offset="0%"/><stop stop-color="#2F2FFF" offset="54.102%"/><stop stop-color="#52CEF8" offset="100%"/></linearGradient><filter x="-50%" y="-50%" width="200%" height="200%" filterUnits="objectBoundingBox" id="b"><feOffset dx="-2" dy="3" in="SourceAlpha" result="shadowOffsetOuter1"/><feGaussianBlur stdDeviation="10" in="shadowOffsetOuter1" result="shadowBlurOuter1"/><feColorMatrix values="0 0 0 0 0 0 0 0 0 0 0 0 0 0 0 0 0 0 0.552734375 0" in="shadowBlurOuter1" result="shadowMatrixOuter1"/><feMerge><feMergeNode in="shadowMatrixOuter1"/><feMergeNode in="SourceGraphic"/></feMerge></filter><linearGradient x1="50%" y1="0%" x2="50%" y2="100%" id="c"><stop stop-color="#FFF" stop-opacity=".1" offset="0%"/><stop stop-color="#FFF" stop-opacity="0" offset="100%"/></linearGradient><path d="M30.503 29.327v8.341c0 .457-.04.99-.11 1.553l5.036 3.91c.452.352.573 1.029.274 1.516l.025-.04c-.296.482-.998.834-1.56.777l-5.462-.562c-.627 1.272-1.597 2.734-2.743 2.734-1.144 0-2.107-1.458-2.73-2.729l-5.415.557c-.562.057-1.264-.295-1.56-.777l.025.04a1.179 1.179 0 0 1 .274-1.516l5.012-3.89a12.4 12.4 0 0 1-.118-1.573v-8.334l-18.807.941c-.566.028-1.371-.244-1.804-.612l-.077-.065c-.43-.367-.772-1.12-.763-1.7l.014-.843c.01-.572.422-1.24.944-1.503l20.493-10.319v-7.47c0-1.431.522-3.613 1.245-4.845 0 0 1.143-2.918 3.282-2.918 2.14 0 3.281 2.918 3.281 2.918.687 1.245 1.244 3.406 1.244 4.845v7.404l20.624 10.385c.523.263.935.93.945 1.503l.013.843c.01.58-.332 1.333-.762 1.7l-.077.065c-.433.368-1.238.64-1.804.612l-18.939-.948z" id="d"/></defs><g fill="none" fill-rule="evenodd"><path d="M33.56 24.47L50.645 41.6a4.371 4.371 0 0 0 6.2 0L74.43 23.968c.259-.69.73-1.393 1.477-2.097 5.523-5.21 9.917-11.086 11.382-9.617 1.465 1.469-2.93 5.875-2.93 8.813 0 2.937 4.799-2.082 6.303-.685 1.505 1.397-2.488 4.398-.295 5.645 2.193 1.247 13.813-14.986 17.43-12.304 3.616 2.682-7.99 12.248-5.86 14.688 2.13 2.44-5.95 4.64-2.975 5.992 2.942 1.337 3.86 3.57 1.587 5.688l-.667.67c-1.414 1.6-2.385 3.788-4.759 4.773L77.946 62.757a4.4 4.4 0 0 0 0 6.218l22.604 22.664-.005.005c2.374 2.415 11.365 13.145 5.787 13.145-5.638 0-10.813-5.896-13.068-3.572-2.255 2.325 2.647 6.247 2.007 7.851-.64 1.604-4.51-4.522-6.765-3.392-2.255 1.131 13.542 15.423 11.966 16.739-1.575 1.316-18.73-16.739-18.73-11.086 0 5.653 7.465 5.887 4.082 8.148s-5.21-5.887-11.975-10.409c-1.919-1.282-2.386-2.656-2.072-3.965L56.846 90.132a4.371 4.371 0 0 0-6.201 0l-15.396 15.437c.106 1.166-.457 2.368-2.15 3.499-6.764 4.522-14.657 19.22-18.04 16.958-3.382-2.261 10.148-9.044 10.148-14.697 0-.745-.09-1.271-.25-1.625l-.567-.568c-1.526-.523-4.762 3.184-5.948 2.193-1.575-1.316 2.255-4.522 0-5.653-2.255-1.13-6.125 4.996-6.765 3.392-.64-1.604 4.263-5.526 2.008-7.85-2.255-2.325 1.375-3.455-4.263-3.455-4.954 0-4.004-3.443-2.171-5.813l-.31-.311 22.603-22.664a4.4 4.4 0 0 0 0-6.218L12.45 45.616c-1.729-.843-2.677-2.348-3.689-3.699l-1.82-1.825.092-.092c-1.857-2.02-.89-4.098 1.906-5.368 2.975-1.352-7.275-8.188-5.144-10.628 2.13-2.439 3.708 4.151 7.324 1.47 3.616-2.683 4.221 2.03 6.414.782 2.193-1.247-1.8-4.248-.295-5.645 1.505-1.397 6.303 3.622 6.303.685 0-2.938-2.168-3.167-.703-4.636 1.465-1.468 3.633.23 9.156 5.44.844.796 1.338 1.593 1.567 2.37zM108.581.739c1.654-.475 2.813.121 3.55 2.693.739 2.573-5.119 11.212-7.08 7.599-1.963-3.613 1.876-9.818 3.53-10.292zM5.801 117.422c.269 1.081-1.967 5.242-4.627 5.311-2.661.07.286-6.01 1.967-6.43 1.681-.418 2.39.039 2.66 1.12z" fill="url(#a)"/><g filter="url(#b)" transform="rotate(45 -8.11 77.662)"><path fill="url(#c)" d="M1.633 26.096H52.07v37.61H1.633z"/><mask id="e" fill="#fff"><use xlink:href="#d"/></mask><use fill="#FFF" xlink:href="#d"/><path fill="#EBEDF3" mask="url(#e)" d="M19.641 13.488h1.81v16.838h-1.81z"/><path d="M52.072 27.055c-.01-.572-.422-1.24-.945-1.503L29.814 14.82v14.473l19.628.982c.566.028 1.371-.244 1.804-.612l.077-.065c.43-.367.772-1.12.762-1.7l-.013-.843z" fill="#DFE2E4" mask="url(#e)"/><path d="M28.555 44.807l5.612.577c.563.057 1.265-.295 1.56-.777l-.024.04c.3-.487.178-1.164-.274-1.516l-5.318-4.128c-.148 1.306-.442 2.757-.802 3.735 0 0-.27.988-.754 2.069z" fill="#DFE2E4" opacity=".4" mask="url(#e)"/><path d="M35.367 29.57l-5.183-.259V15.006l2.478 1.248 2.705 13.317z" fill="#C5C7CD" mask="url(#e)"/><path d="M30.503.92V47.6s-2.512-.044-4.54-.044l-.073-.002c1.052-1.522 2.803-4.795 2.803-8.93V6.307c0-3.59-1.665-5.413-2.334-6.276 1.871.31 4.144.89 4.144.89z" fill="#DEE1E3" mask="url(#e)"/></g></g></svg>