<svg width="113" height="13" viewBox="0 0 113 13" xmlns="http://www.w3.org/2000/svg"><title>X– AVIASALES</title><path d="M.77 12h1.593l3.04-4.492h.054L8.449 12h1.688L6.332 6.414v-.047l3.89-5.64h-1.6l-3.048 4.53H5.52L2.512.728H.816l3.79 5.57v.055L.77 12zm18.804-3.938V6.798h-8v1.266h8zM33.824 12l-1.133-3.227h-4.484L27.074 12h-1.476L29.754.727h1.39L35.302 12h-1.477zm-3.398-9.563L28.62 7.579h3.656l-1.804-5.14h-.047zM41.223 12L45.379.727h-1.477l-3.351 9.562h-.047L37.152.727h-1.476L39.832 12h1.39zm7.851 0V.727h-1.406V12h1.406zm10.516 0l-1.133-3.227h-4.484L52.84 12h-1.477L55.52.727h1.39L61.066 12H59.59zM56.19 2.437l-1.804 5.141h3.656l-1.805-5.14h-.047zm6.625 6.461c.133 1.993 1.79 3.29 4.18 3.29 2.594 0 4.219-1.29 4.219-3.352 0-1.617-.945-2.516-3.281-3.102l-1.18-.312c-1.531-.399-2.156-.906-2.156-1.758 0-1.102 1.015-1.86 2.476-1.86 1.469 0 2.446.743 2.57 1.954h1.407c-.063-1.89-1.688-3.219-3.93-3.219-2.344 0-3.984 1.313-3.984 3.188 0 1.53.922 2.445 3 2.976l1.445.375c1.516.39 2.18.977 2.18 1.93 0 1.11-1.11 1.914-2.633 1.914-1.61 0-2.766-.805-2.899-2.024h-1.414zM81.184 12L80.05 8.773h-4.485L74.434 12h-1.477L77.113.727h1.39L82.66 12h-1.476zm-3.399-9.563L75.98 7.579h3.657l-1.805-5.14h-.047zm14.008 8.297h-5.438V.727H84.95V12h6.844v-1.266zm9.531 0h-5.578V6.86h5.29V5.61h-5.29V1.992h5.578V.727H94.34V12h6.984v-1.266zm2.313-1.836c.133 1.993 1.789 3.29 4.18 3.29 2.593 0 4.218-1.29 4.218-3.352 0-1.617-.945-2.516-3.281-3.102l-1.18-.312c-1.531-.399-2.156-.906-2.156-1.758 0-1.102 1.016-1.86 2.477-1.86 1.468 0 2.445.743 2.57 1.954h1.406c-.062-1.89-1.687-3.219-3.93-3.219-2.343 0-3.984 1.313-3.984 3.188 0 1.53.922 2.445 3 2.976l1.445.375c1.516.39 2.18.977 2.18 1.93 0 1.11-1.11 1.914-2.633 1.914-1.61 0-2.765-.805-2.898-2.024h-1.414z" fill="#4A4A4A" fill-rule="evenodd"/></svg>