<?xml version="1.0" encoding="UTF-8"?>
<svg width="113px" height="13px" viewBox="0 0 113 13" version="1.1" xmlns="http://www.w3.org/2000/svg" xmlns:xlink="http://www.w3.org/1999/xlink">
    <!-- Generator: Sketch 42 (36781) - http://www.bohemiancoding.com/sketch -->
    <title>X– AVIASALES</title>
    <desc>Created with Sketch.</desc>
    <defs></defs>
    <g id="Clean" stroke="none" stroke-width="1" fill="none" fill-rule="evenodd">
        <g id="1280" transform="translate(-583.000000, -256.000000)" fill="#4A4A4A">
            <g id="Logo" transform="translate(583.000000, 107.000000)">
                <path d="M0.76953125,161 L2.36328125,161 L5.40234375,156.507812 L5.45703125,156.507812 L8.44921875,161 L10.1367188,161 L6.33203125,155.414062 L6.33203125,155.367188 L10.2226563,149.726562 L8.62109375,149.726562 L5.57421875,154.257812 L5.51953125,154.257812 L2.51171875,149.726562 L0.81640625,149.726562 L4.60546875,155.296875 L4.60546875,155.351562 L0.76953125,161 Z M19.5742188,157.0625 L19.5742188,155.796875 L11.5742188,155.796875 L11.5742188,157.0625 L19.5742188,157.0625 Z M33.8242188,161 L32.6914063,157.773438 L28.2070313,157.773438 L27.0742188,161 L25.5976563,161 L29.7539063,149.726562 L31.1445313,149.726562 L35.3007813,161 L33.8242188,161 Z M30.4257813,151.4375 L28.6210938,156.578125 L32.2773438,156.578125 L30.4726563,151.4375 L30.4257813,151.4375 Z M41.2226562,161 L45.3789062,149.726562 L43.9023438,149.726562 L40.5507812,159.289062 L40.5039062,159.289062 L37.1523438,149.726562 L35.6757812,149.726562 L39.8320312,161 L41.2226562,161 Z M49.0742188,161 L49.0742188,149.726562 L47.6679688,149.726562 L47.6679688,161 L49.0742188,161 Z M59.5898438,161 L58.4570313,157.773438 L53.9726563,157.773438 L52.8398438,161 L51.3632813,161 L55.5195313,149.726562 L56.9101563,149.726562 L61.0664063,161 L59.5898438,161 Z M56.1914063,151.4375 L54.3867188,156.578125 L58.0429688,156.578125 L56.2382813,151.4375 L56.1914063,151.4375 Z M62.8164063,157.898438 C62.9492188,159.890625 64.6054688,161.1875 66.9960938,161.1875 C69.5898438,161.1875 71.2148438,159.898438 71.2148438,157.835938 C71.2148438,156.21875 70.2695313,155.320312 67.9335938,154.734375 L66.7539063,154.421875 C65.2226563,154.023438 64.5976563,153.515625 64.5976563,152.664062 C64.5976563,151.5625 65.6132813,150.804688 67.0742188,150.804688 C68.5429688,150.804688 69.5195313,151.546875 69.6445313,152.757812 L71.0507813,152.757812 C70.9882813,150.867188 69.3632813,149.539062 67.1210938,149.539062 C64.7773438,149.539062 63.1367188,150.851562 63.1367188,152.726562 C63.1367188,154.257812 64.0585938,155.171875 66.1367188,155.703125 L67.5820313,156.078125 C69.0976563,156.46875 69.7617188,157.054688 69.7617188,158.007812 C69.7617188,159.117188 68.6523438,159.921875 67.1289063,159.921875 C65.5195313,159.921875 64.3632813,159.117188 64.2304688,157.898438 L62.8164063,157.898438 Z M81.1835938,161 L80.0507812,157.773438 L75.5664062,157.773438 L74.4335938,161 L72.9570312,161 L77.1132812,149.726562 L78.5039062,149.726562 L82.6601562,161 L81.1835938,161 Z M77.7851563,151.4375 L75.9804688,156.578125 L79.6367188,156.578125 L77.8320313,151.4375 L77.7851563,151.4375 Z M91.7929688,159.734375 L86.3554688,159.734375 L86.3554688,149.726562 L84.9492188,149.726562 L84.9492188,161 L91.7929688,161 L91.7929688,159.734375 Z M101.324219,159.734375 L95.7460938,159.734375 L95.7460938,155.859375 L101.035156,155.859375 L101.035156,154.609375 L95.7460938,154.609375 L95.7460938,150.992188 L101.324219,150.992188 L101.324219,149.726562 L94.3398438,149.726562 L94.3398438,161 L101.324219,161 L101.324219,159.734375 Z M103.636719,157.898438 C103.769531,159.890625 105.425781,161.1875 107.816406,161.1875 C110.410156,161.1875 112.035156,159.898438 112.035156,157.835938 C112.035156,156.21875 111.089844,155.320312 108.753906,154.734375 L107.574219,154.421875 C106.042969,154.023438 105.417969,153.515625 105.417969,152.664062 C105.417969,151.5625 106.433594,150.804688 107.894531,150.804688 C109.363281,150.804688 110.339844,151.546875 110.464844,152.757812 L111.871094,152.757812 C111.808594,150.867188 110.183594,149.539062 107.941406,149.539062 C105.597656,149.539062 103.957031,150.851562 103.957031,152.726562 C103.957031,154.257812 104.878906,155.171875 106.957031,155.703125 L108.402344,156.078125 C109.917969,156.46875 110.582031,157.054688 110.582031,158.007812 C110.582031,159.117188 109.472656,159.921875 107.949219,159.921875 C106.339844,159.921875 105.183594,159.117188 105.050781,157.898438 L103.636719,157.898438 Z" id="X–-AVIASALES"></path>
            </g>
        </g>
    </g>
</svg>